<svg xmlns="http://www.w3.org/2000/svg" xmlns:xlink="http://www.w3.org/1999/xlink" width="200" zoomAndPan="magnify" viewBox="0 0 150 30.000001" height="40" preserveAspectRatio="xMidYMid meet" version="1.0"><path fill="#ffffff" d="M 22.203125 27.054688 C 19.890625 27.054688 17.519531 26.390625 15.097656 25.070312 C 14.050781 24.5 13.136719 23.894531 12.34375 23.25 C 11.554688 22.609375 10.894531 21.9375 10.363281 21.242188 C 8.46875 20.730469 6.890625 19.535156 5.625 17.660156 C 4.378906 15.753906 3.757812 13.769531 3.757812 11.714844 C 3.757812 8.980469 4.644531 6.699219 6.425781 4.863281 C 8.207031 2.972656 10.410156 2.027344 13.035156 2.027344 C 15.660156 2.027344 17.863281 2.972656 19.640625 4.863281 C 21.421875 6.699219 22.3125 8.980469 22.3125 11.714844 C 22.3125 13.917969 21.652344 15.945312 20.328125 17.800781 C 18.96875 19.710938 17.28125 20.894531 15.261719 21.351562 C 15.683594 22.707031 16.527344 23.882812 17.796875 24.875 C 19.132812 25.996094 20.601562 26.558594 22.203125 26.558594 Z M 7.003906 11.714844 C 7.003906 14.359375 7.519531 16.5 8.546875 18.132812 C 9.625 19.839844 11.125 20.691406 13.035156 20.691406 C 14.976562 20.453125 16.46875 19.554688 17.503906 17.992188 C 18.546875 16.433594 19.066406 14.339844 19.066406 11.714844 C 19.066406 9.074219 18.539062 6.972656 17.492188 5.414062 C 16.410156 3.78125 14.925781 2.964844 13.035156 2.964844 C 11.125 2.964844 9.625 3.78125 8.546875 5.414062 C 7.519531 6.988281 7.003906 9.089844 7.003906 11.714844 Z M 7.003906 11.714844 " fill-opacity="1" fill-rule="nonzero"/><path fill="#ffffff" d="M 33.550781 21.628906 C 31.269531 21.628906 29.46875 20.929688 28.148438 19.535156 C 26.917969 18.25 26.304688 16.589844 26.304688 14.550781 L 26.304688 5.4375 C 26.304688 4.464844 26.109375 3.808594 25.722656 3.472656 C 25.339844 3.132812 24.652344 2.964844 23.660156 2.964844 L 23.660156 2.46875 L 31.8125 2.46875 L 31.8125 2.964844 C 30.820312 2.964844 30.132812 3.132812 29.746094 3.472656 C 29.359375 3.808594 29.171875 4.464844 29.171875 5.4375 L 29.171875 14.605469 C 29.171875 16.222656 29.65625 17.601562 30.628906 18.738281 C 31.582031 19.859375 32.859375 20.417969 34.457031 20.417969 C 36.054688 20.417969 37.347656 19.847656 38.339844 18.707031 C 39.273438 17.628906 39.742188 16.261719 39.742188 14.605469 L 39.742188 5.4375 C 39.742188 4.464844 39.550781 3.808594 39.160156 3.472656 C 38.777344 3.132812 38.089844 2.964844 37.097656 2.964844 L 37.097656 2.46875 L 43.648438 2.46875 L 43.648438 2.964844 C 42.65625 2.964844 41.96875 3.132812 41.582031 3.472656 C 41.199219 3.808594 41.007812 4.464844 41.007812 5.4375 L 41.007812 14.605469 C 41.007812 16.664062 40.425781 18.3125 39.269531 19.558594 C 37.953125 20.9375 36.042969 21.628906 33.550781 21.628906 Z M 33.550781 21.628906 " fill-opacity="1" fill-rule="nonzero"/><path fill="#ffffff" d="M 44.0625 20.691406 C 45.148438 20.691406 46.039062 19.875 46.738281 18.242188 L 53.703125 2.027344 L 54.363281 2.027344 L 61.21875 18.242188 C 61.605469 19.160156 61.988281 19.785156 62.371094 20.109375 C 62.816406 20.496094 63.46875 20.691406 64.332031 20.691406 L 64.332031 21.1875 L 56.621094 21.1875 L 56.621094 20.691406 C 57.976562 20.691406 58.660156 20.296875 58.660156 19.503906 C 58.660156 19.160156 58.546875 18.738281 58.324219 18.242188 L 56.921875 14.9375 L 49.628906 14.9375 L 48.195312 18.242188 C 47.972656 18.738281 47.863281 19.152344 47.863281 19.480469 C 47.863281 20.289062 48.585938 20.691406 50.039062 20.691406 L 50.039062 21.1875 L 44.0625 21.1875 Z M 50.039062 13.890625 L 56.402344 13.890625 L 53.289062 6.34375 Z M 50.039062 13.890625 " fill-opacity="1" fill-rule="nonzero"/><path fill="#ffffff" d="M 81.125 21.628906 L 69.039062 6.40625 L 68.929688 6.40625 L 68.929688 18.210938 C 68.929688 19.1875 69.121094 19.84375 69.503906 20.183594 C 69.890625 20.519531 70.582031 20.691406 71.574219 20.691406 L 71.574219 21.1875 L 65.015625 21.1875 L 65.015625 20.691406 C 66.007812 20.691406 66.695312 20.519531 67.078125 20.183594 C 67.464844 19.84375 67.660156 19.1875 67.660156 18.210938 L 67.660156 5.605469 C 67.660156 4.832031 67.359375 4.199219 66.753906 3.707031 C 66.148438 3.210938 65.414062 2.964844 64.550781 2.964844 L 64.550781 2.46875 L 69.257812 2.46875 L 80.410156 16.148438 L 80.519531 16.148438 L 80.519531 5.4375 C 80.519531 4.464844 80.324219 3.808594 79.9375 3.472656 C 79.554688 3.132812 78.867188 2.964844 77.875 2.964844 L 77.875 2.46875 L 84.433594 2.46875 L 84.433594 2.964844 C 83.441406 2.964844 82.75 3.132812 82.363281 3.472656 C 81.980469 3.808594 81.789062 4.464844 81.789062 5.4375 L 81.789062 21.628906 Z M 81.125 21.628906 " fill-opacity="1" fill-rule="nonzero"/><path fill="#ffffff" d="M 88.921875 20.691406 C 89.910156 20.691406 90.597656 20.519531 90.984375 20.183594 C 91.371094 19.84375 91.566406 19.1875 91.566406 18.210938 L 91.566406 3.398438 L 89.527344 3.398438 C 88.347656 3.398438 87.472656 3.6875 86.894531 4.257812 C 86.316406 4.824219 85.910156 5.714844 85.667969 6.925781 L 85.175781 6.925781 L 85.394531 2.46875 L 100.59375 2.46875 L 100.8125 6.925781 L 100.316406 6.925781 C 100.078125 5.730469 99.683594 4.859375 99.132812 4.3125 C 98.527344 3.703125 97.636719 3.398438 96.464844 3.398438 L 94.425781 3.398438 L 94.425781 18.210938 C 94.425781 19.1875 94.617188 19.84375 95 20.183594 C 95.386719 20.519531 96.078125 20.691406 97.070312 20.691406 L 97.070312 21.1875 L 88.921875 21.1875 Z M 88.921875 20.691406 " fill-opacity="1" fill-rule="nonzero"/><path fill="#ffffff" d="M 111.5 21.628906 C 109.222656 21.628906 107.421875 20.929688 106.097656 19.535156 C 104.867188 18.25 104.253906 16.589844 104.253906 14.550781 L 104.253906 5.4375 C 104.253906 4.464844 104.058594 3.808594 103.671875 3.472656 C 103.289062 3.132812 102.601562 2.964844 101.609375 2.964844 L 101.609375 2.46875 L 109.765625 2.46875 L 109.765625 2.964844 C 108.773438 2.964844 108.082031 3.132812 107.695312 3.472656 C 107.3125 3.808594 107.121094 4.464844 107.121094 5.4375 L 107.121094 14.605469 C 107.121094 16.222656 107.605469 17.601562 108.578125 18.738281 C 109.535156 19.859375 110.808594 20.417969 112.40625 20.417969 C 114.003906 20.417969 115.296875 19.847656 116.289062 18.707031 C 117.222656 17.628906 117.691406 16.261719 117.691406 14.605469 L 117.691406 5.4375 C 117.691406 4.464844 117.5 3.808594 117.113281 3.472656 C 116.730469 3.132812 116.042969 2.964844 115.050781 2.964844 L 115.050781 2.46875 L 121.601562 2.46875 L 121.601562 2.964844 C 120.609375 2.964844 119.917969 3.132812 119.53125 3.472656 C 119.148438 3.808594 118.957031 4.464844 118.957031 5.4375 L 118.957031 14.605469 C 118.957031 16.664062 118.378906 18.3125 117.222656 19.558594 C 115.902344 20.9375 113.996094 21.628906 111.5 21.628906 Z M 111.5 21.628906 " fill-opacity="1" fill-rule="nonzero"/><path fill="#ffffff" d="M 122.402344 20.691406 C 123.394531 20.691406 124.078125 20.519531 124.464844 20.183594 C 124.851562 19.84375 125.042969 19.1875 125.042969 18.210938 L 125.042969 5.4375 C 125.042969 4.464844 124.851562 3.808594 124.464844 3.472656 C 124.078125 3.132812 123.394531 2.964844 122.402344 2.964844 L 122.402344 2.46875 L 127.964844 2.46875 L 134.601562 16.839844 L 134.734375 16.839844 L 141.234375 2.46875 L 146.738281 2.46875 L 146.738281 2.964844 C 145.75 2.964844 145.058594 3.132812 144.671875 3.472656 C 144.289062 3.808594 144.097656 4.464844 144.097656 5.4375 L 144.097656 18.210938 C 144.097656 19.1875 144.289062 19.84375 144.671875 20.183594 C 145.058594 20.519531 145.75 20.691406 146.738281 20.691406 L 146.738281 21.1875 L 138.59375 21.1875 L 138.59375 20.691406 C 139.582031 20.691406 140.269531 20.519531 140.65625 20.183594 C 141.042969 19.84375 141.234375 19.1875 141.234375 18.210938 L 141.234375 5.855469 L 141.121094 5.855469 L 134.160156 21.1875 L 133.578125 21.1875 L 126.503906 5.964844 L 126.308594 5.964844 L 126.308594 18.210938 C 126.308594 19.1875 126.503906 19.84375 126.890625 20.183594 C 127.277344 20.519531 127.960938 20.691406 128.953125 20.691406 L 128.953125 21.1875 L 122.402344 21.1875 Z M 122.402344 20.691406 " fill-opacity="1" fill-rule="nonzero"/></svg>